<?xml version="1.0" standalone="no"?><!DOCTYPE svg PUBLIC "-//W3C//DTD SVG 1.1//EN" "http://www.w3.org/Graphics/SVG/1.1/DTD/svg11.dtd"><svg class="site-icon__svg" x="0px" y="0px" width="8px" height="13px" viewBox="0 0 8 13" style="enable-background:new 0 0 8 13;" xml:space="preserve" version="1.1" xmlns="http://www.w3.org/2000/svg" xmlns:xlink="http://www.w3.org/1999/xlink">
    <title>back</title>
    <path class="st0" d="M7.4,12.9l0.4-0.4c0.2-0.2,0.2-0.5,0-0.7l-5.3-5L2.3,6.5l0.3-0.2l5.3-5C8,1,8,0.8,7.8,0.6L7.4,0.1C7.2,0,6.9,0,6.7,0.1c0,0,0,0,0,0L5.2,1.6L4.9,1.8L0,6.5l1.2,1.1l0,0l0.3,0.2l5.3,5C6.9,13,7.2,13,7.4,12.9C7.4,12.9,7.4,12.9,7.4,12.9z"/>
</svg>